# xmcd
#
# Track frame offsets:
# 150
# 17812
# 24038
# 35012
# 56765
# 83015
# 105088
# 115534
# 130668
# 137667
# 147297
# 154317
# 166577
# 173812
#
# Disc length: 2611 seconds
#
#
# Revision: 0
# Processed by: cddbd v1.5.1PL0 Copyright (c) Steve Scherf et al.
# Submitted via: FreeRIP 2.90 
#
DISCID=a10a310e
DTITLE=All Is Suffering - the past: vindictive sadisms of petty bureaucrats
DYEAR=1900
DGENRE=Death Metal
TTITLE0=through deep snow, darkness stalks the hunters
TTITLE1=crippled, reviled and pissed on by dogs
TTITLE2=massive violence upon seismic devastation
TTITLE3=pathological narcissism
TTITLE4=summary executioner
TTITLE5=mauthausen
TTITLE6=denazification of your weak mind
TTITLE7=dragon of the black pool
TTITLE8=600,000 dead
TTITLE9=subjugation of rich cunts
TTITLE10=siege warfare
TTITLE11=swords of prosperity
TTITLE12=municipal filth
TTITLE13=spectre of war
EXTD=
EXTT0=
EXTT1=
EXTT2=
EXTT3=
EXTT4=
EXTT5=
EXTT6=
EXTT7=
EXTT8=
EXTT9=
EXTT10=
EXTT11=
EXTT12=
EXTT13=
PLAYORDER=
